# xmcd
# 
# Track frame offsets:
#     150
#     4787
#     24969
#     52667
#     73998
#     97380
#     116930
#     136227
#     163590
#     185084
#     210385
# 
# Disc length: 3156
# 
# Revision: 0
# Processed by: cddbd v1.5.2PL0 Copyright (c) Steve Scherf et al.
# Submitted via: fre:ac v1.0.31
# 
DISCID=990c520b
DTITLE=Corvus Corax - Skal
DYEAR=2018
DGENRE=Folk
TTITLE0=Intro Yggdrasill
TTITLE1=Yggdrasill
TTITLE2=Her Wirt
TTITLE3=Sauf noch ein
TTITLE4=Hugin and Mugin
TTITLE5=Pfeifsack
TTITLE6=Hol Bier herbei
TTITLE7=Skal
TTITLE8=Eine Jungfrau
TTITLE9=Die Rose
TTITLE10=Ofermod
EXTD=
EXTT0=
EXTT1=
EXTT2=
EXTT3=
EXTT4=
EXTT5=
EXTT6=
EXTT7=
EXTT8=
EXTT9=
EXTT10=
PLAYORDER=
